<svg width="80" height="120" viewBox="0 0 80 120" fill="none" xmlns="http://www.w3.org/2000/svg">
<path d="M80 19.9994C80 8.95404 71.046 0 60.0006 0H20.4108C9.36543 0 0.4114 8.95404 0.4114 19.9994C0.4114 31.0448 9.36543 39.9988 20.4108 39.9988H60.0006C71.046 39.9988 80 31.0448 80 19.9994Z" fill="#F2321E"/>
<path d="M80 19.9994C80 8.95404 71.046 0 60.0006 0H40.2057V39.9988H60.0006C71.046 39.9988 80 31.0448 80 19.9994Z" fill="#FF6C5C"/>
<ellipse rx="19.8972" ry="19.9994" transform="matrix(-1 0 0 1 60.1009 59.9966)" fill="#1ABDFF"/>
<path fill-rule="evenodd" clip-rule="evenodd" d="M20.3066 120C9.31836 120 0.410156 111.046 0.410156 100.001C0.410156 88.9553 9.31836 80.0013 20.3066 80.0013H40.2041V100.001C40.2041 111.046 31.2959 120 20.3066 120Z" fill="#3ED67E"/>
<path fill-rule="evenodd" clip-rule="evenodd" d="M19.8965 79.9982C8.9082 79.9982 0 71.0442 0 59.9988C0 48.9534 8.9082 39.9994 19.8965 39.9994H40.2041V79.9982H19.8965Z" fill="#943FFF"/>
</svg>
